<svg width="22" height="22" viewBox="0 0 22 22" fill="none" xmlns="http://www.w3.org/2000/svg">
<path d="M21.5365 19.3139C21.8316 19.609 21.9974 20.0092 21.9974 20.4265C21.9974 20.8438 21.8316 21.2441 21.5365 21.5391C21.2414 21.8342 20.8411 22 20.4238 22C20.0065 22 19.6062 21.8342 19.3111 21.5391L11 13.2259L2.68626 21.5365C2.39116 21.8316 1.99092 21.9974 1.57358 21.9974C1.15624 21.9974 0.755993 21.8316 0.46089 21.5365C0.165787 21.2414 6.21883e-09 20.8412 0 20.4239C-6.21883e-09 20.0066 0.165787 19.6064 0.46089 19.3113L8.77463 11.0007L0.463508 2.68741C0.168405 2.39233 0.00261814 1.99211 0.00261815 1.57479C0.00261815 1.15748 0.168405 0.757257 0.463508 0.462172C0.758611 0.167086 1.15886 0.00130875 1.5762 0.00130875C1.99353 0.00130874 2.39378 0.167086 2.68888 0.462172L11 8.77541L19.3137 0.460862C19.6088 0.165777 20.0091 -6.95245e-09 20.4264 0C20.8438 6.95245e-09 21.244 0.165777 21.5391 0.460862C21.8342 0.755948 22 1.15617 22 1.57348C22 1.9908 21.8342 2.39102 21.5391 2.6861L13.2254 11.0007L21.5365 19.3139Z" fill="#757575"/>
</svg>
