<svg width="22" height="24" viewBox="0 0 22 24" fill="none" xmlns="http://www.w3.org/2000/svg">
<path d="M20.68 4.36364H1.32C0.969914 4.36364 0.634167 4.50156 0.386619 4.74706C0.139071 4.99256 0 5.32553 0 5.67273C0 6.01992 0.139071 6.35289 0.386619 6.59839C0.634167 6.8439 0.969914 6.98182 1.32 6.98182H1.76V21.8182C1.76 22.3968 1.99179 22.9518 2.40437 23.361C2.81695 23.7701 3.37652 24 3.96 24H18.04C18.6235 24 19.1831 23.7701 19.5956 23.361C20.0082 22.9518 20.24 22.3968 20.24 21.8182V6.98182H20.68C21.0301 6.98182 21.3658 6.8439 21.6134 6.59839C21.8609 6.35289 22 6.01992 22 5.67273C22 5.32553 21.8609 4.99256 21.6134 4.74706C21.3658 4.50156 21.0301 4.36364 20.68 4.36364ZM17.6 21.3818H4.4V6.98182H17.6V21.3818ZM5.28 1.30909C5.28 0.961898 5.41907 0.628926 5.66662 0.383424C5.91417 0.137922 6.24991 0 6.6 0H15.4C15.7501 0 16.0858 0.137922 16.3334 0.383424C16.5809 0.628926 16.72 0.961898 16.72 1.30909C16.72 1.65628 16.5809 1.98926 16.3334 2.23476C16.0858 2.48026 15.7501 2.61818 15.4 2.61818H6.6C6.24991 2.61818 5.91417 2.48026 5.66662 2.23476C5.41907 1.98926 5.28 1.65628 5.28 1.30909Z" fill="#757575"/>
</svg>
