<svg width="27" height="27" viewBox="0 0 27 27" fill="none" xmlns="http://www.w3.org/2000/svg">
<path d="M9.58065 24.3871V12.1935C9.58115 11.6505 9.75082 11.1212 10.0661 10.6791C10.3813 10.2369 10.8265 9.90401 11.3397 9.72655C11.8529 9.5491 12.4086 9.53595 12.9296 9.68891C13.4506 9.84188 13.911 10.1534 14.2469 10.5801C15.574 9.88444 17.0582 9.54296 18.5559 9.58865C20.0536 9.63434 21.5142 10.0656 22.7965 10.8409C24.0787 11.6161 25.1393 12.7091 25.8757 14.014C26.6121 15.319 26.9993 16.7919 27 18.2903V24.3871C27 25.0801 26.7247 25.7447 26.2347 26.2347C25.7447 26.7247 25.0801 27 24.3871 27C23.6941 27 23.0295 26.7247 22.5395 26.2347C22.0495 25.7447 21.7742 25.0801 21.7742 24.3871V18.2903C21.7742 17.3663 21.4071 16.4802 20.7538 15.8269C20.1004 15.1735 19.2143 14.8065 18.2903 14.8065C17.3663 14.8065 16.4802 15.1735 15.8269 15.8269C15.1735 16.4802 14.8065 17.3663 14.8065 18.2903V24.3871C14.8065 25.0801 14.5312 25.7447 14.0411 26.2347C13.5511 26.7247 12.8865 27 12.1935 27C11.5006 27 10.836 26.7247 10.3459 26.2347C9.85593 25.7447 9.58065 25.0801 9.58065 24.3871ZM6.09677 12.1935V24.3871C6.09677 25.0801 5.82149 25.7447 5.33147 26.2347C4.84146 26.7247 4.17686 27 3.48387 27C2.79089 27 2.12628 26.7247 1.63627 26.2347C1.14625 25.7447 0.870968 25.0801 0.870968 24.3871V12.1935C0.870968 11.5006 1.14625 10.836 1.63627 10.3459C2.12628 9.85593 2.79089 9.58065 3.48387 9.58065C4.17686 9.58065 4.84146 9.85593 5.33147 10.3459C5.82149 10.836 6.09677 11.5006 6.09677 12.1935ZM0 3.48387C0 2.79483 0.204326 2.12126 0.587138 1.54834C0.969951 0.975419 1.51406 0.528881 2.15065 0.265195C2.78725 0.0015095 3.48774 -0.0674827 4.16354 0.0669432C4.83934 0.201369 5.46011 0.533177 5.94734 1.0204C6.43457 1.50763 6.76637 2.1284 6.9008 2.8042C7.03523 3.48001 6.96623 4.1805 6.70255 4.81709C6.43886 5.45369 5.99233 5.99779 5.41941 6.38061C4.84649 6.76342 4.17292 6.96774 3.48387 6.96774C2.55989 6.96774 1.67376 6.60069 1.0204 5.94734C0.36705 5.29399 0 4.40785 0 3.48387Z" fill="#6B6B6B"/>
</svg>
