<svg width="22" height="22" viewBox="0 0 22 22" fill="none" xmlns="http://www.w3.org/2000/svg">
<path d="M22 11C22 11.3501 21.8609 11.6858 21.6134 11.9334C21.3658 12.1809 21.0301 12.32 20.68 12.32H12.32V20.68C12.32 21.0301 12.1809 21.3658 11.9334 21.6134C11.6858 21.8609 11.3501 22 11 22C10.6499 22 10.3142 21.8609 10.0666 21.6134C9.81907 21.3658 9.68 21.0301 9.68 20.68V12.32H1.32C0.969914 12.32 0.634167 12.1809 0.386619 11.9334C0.139071 11.6858 0 11.3501 0 11C0 10.6499 0.139071 10.3142 0.386619 10.0666C0.634167 9.81907 0.969914 9.68 1.32 9.68H9.68V1.32C9.68 0.969914 9.81907 0.634167 10.0666 0.386619C10.3142 0.139071 10.6499 0 11 0C11.3501 0 11.6858 0.139071 11.9334 0.386619C12.1809 0.634167 12.32 0.969914 12.32 1.32V9.68H20.68C21.0301 9.68 21.3658 9.81907 21.6134 10.0666C21.8609 10.3142 22 10.6499 22 11Z" fill="#6B6B6B"/>
</svg>
